<svg width="256" height="256" fill="none" xmlns="http://www.w3.org/2000/svg"><path d="M76.398 46.547a55.517 55.517 0 0 1 67.684 26.214c6.901-3.825 15.182-5.874 23.069-5.671a44.24 44.24 0 0 1 38.078 23.745 44.235 44.235 0 0 1 4.967 22.717c12.808.987 24.67 7.042 33.215 16.633a49.685 49.685 0 0 1-2.641 68.849 49.681 49.681 0 0 1-34.451 13.881l-154.565-.675a51.76 51.76 0 0 1-42.07-81.905 51.76 51.76 0 0 1 30.868-20.382c-2.61-13.068-.36-26.889 6.208-38.484a55.517 55.517 0 0 1 29.638-24.921zm18.165 50.454c-11.905 0-22.409 3.504-29.412 7.007l4.202 12.614c6.302-3.154 13.655-5.956 22.758-5.956 7.003 0 13.656 3.154 13.656 11.213C105.766 140.099 65.502 141.501 62 186h61.623v-13.665H83.008c5.602-22.425 39.915-27.331 39.915-52.208 0-13.315-9.103-23.126-28.36-23.126zm30.811 56.763v10.512h39.565V186h15.756v-21.724H194v-13.315h-13.305v-53.96h-11.554l-43.767 56.763zm40.265-32.236c0 2.453-.7 10.161-.7 17.169v12.614h-10.504c-3.152 0-9.104.351-11.204.351l22.408-30.134z" fill="#0075FF"/></svg>