<?xml version="1.0" standalone="no"?>
<!DOCTYPE svg PUBLIC "-//W3C//DTD SVG 1.0//EN" "http://www.w3.org/TR/2001/REC-SVG-20010904/DTD/svg10.dtd">
<svg width="256" height="256" viewBox="0 0 256 256" fill="none" xmlns="http://www.w3.org/2000/svg">
<path d="M76.3975 46.5465C88.9474 42.0654 102.691 42.2484 115.117 47.0612C127.544 51.874 137.824 60.996 144.082 72.7614C150.983 68.9355 159.264 66.8859 167.151 67.0885C175.039 67.2912 182.729 69.6 189.424 73.775C196.119 77.9502 201.576 83.8406 205.229 90.8346C208.881 97.8285 210.597 105.672 210.197 113.552C223.005 114.539 234.866 120.594 243.411 130.185C251.957 139.776 256.455 152.305 255.963 165.141C255.471 177.978 250.026 190.125 240.77 199.033C231.513 207.941 219.166 212.916 206.319 212.915L51.7549 212.24C42.2389 212.239 32.9068 209.615 24.7852 204.656C16.6635 199.697 10.0656 192.593 5.71777 184.129C1.37018 175.664 -0.559164 166.165 0.140624 156.674C0.840472 147.184 4.14307 138.07 9.68555 130.335C17.1126 119.971 28.1037 112.713 40.5518 109.953C37.9421 96.8849 40.1921 83.0644 46.7598 71.4694C53.3275 59.8742 63.8475 51.0277 76.3975 46.5465ZM146.701 95.5748C137.811 91.8928 128.029 90.929 118.592 92.8063C109.154 94.6836 100.486 99.3177 93.6816 106.122C86.8776 112.926 82.2435 121.594 80.3662 131.032C78.4889 140.469 79.4526 150.252 83.1348 159.142C86.8169 168.032 93.0524 175.63 101.053 180.976C109.053 186.322 118.46 189.176 128.082 189.176C140.985 189.175 153.359 184.048 162.483 174.924C171.607 165.8 176.735 153.425 176.736 140.522C176.736 130.9 173.882 121.493 168.536 113.493C163.19 105.492 155.591 99.257 146.701 95.5748Z" fill="#1CACEB"/>
<path d="M128 110V140.796H155.414" stroke="#1CACEB" stroke-width="8" stroke-linecap="round" stroke-linejoin="round"/>
</svg>
